<?xml version="1.0" standalone="no"?>
<!DOCTYPE svg PUBLIC "-//W3C//DTD SVG 1.1//EN" "http://www.w3.org/Graphics/SVG/1.1/DTD/svg11.dtd" >
<svg xmlns="http://www.w3.org/2000/svg">
<metadata>
Created by FontForge 20120731 at Wed May  6 14:43:24 2015
 By Ads
</metadata>
<defs>
<font id="iconfont" horiz-adv-x="1024" >
  <font-face 
    font-family="iconfont"
    font-weight="500"
    font-stretch="normal"
    units-per-em="1024"
    panose-1="2 0 6 3 0 0 0 0 0 0"
    ascent="812"
    descent="-212"
    x-height="792"
    bbox="-1.2549 -212 1024 812"
    underline-thickness="50"
    underline-position="-100"
    unicode-range="U+0078-E621"
  />
<missing-glyph horiz-adv-x="374" 
d="M34 0v682h272v-682h-272zM68 34h204v614h-204v-614z" />
    <glyph glyph-name=".notdef" horiz-adv-x="374" 
d="M34 0v682h272v-682h-272zM68 34h204v614h-204v-614z" />
    <glyph glyph-name=".null" horiz-adv-x="0" 
 />
    <glyph glyph-name="nonmarkingreturn" horiz-adv-x="341" 
 />
    <glyph glyph-name="x" unicode="x" horiz-adv-x="1001" 
d="M281 543q-27 -1 -53 -1h-83q-18 0 -36.5 -6t-32.5 -18.5t-23 -32t-9 -45.5v-76h912v41q0 16 -0.5 30t-0.5 18q0 13 -5 29t-17 29.5t-31.5 22.5t-49.5 9h-133v-97h-438v97zM955 310v-52q0 -23 0.5 -52t0.5 -58t-10.5 -47.5t-26 -30t-33 -16t-31.5 -4.5q-14 -1 -29.5 -0.5
t-29.5 0.5h-32l-45 128h-439l-44 -128h-29h-34q-20 0 -45 1q-25 0 -41 9.5t-25.5 23t-13.5 29.5t-4 30v167h911zM163 247q-12 0 -21 -8.5t-9 -21.5t9 -21.5t21 -8.5q13 0 22 8.5t9 21.5t-9 21.5t-22 8.5zM316 123q-8 -26 -14 -48q-5 -19 -10.5 -37t-7.5 -25t-3 -15t1 -14.5
t9.5 -10.5t21.5 -4h37h67h81h80h64h36q23 0 34 12t2 38q-5 13 -9.5 30.5t-9.5 34.5q-5 19 -11 39h-368zM336 498v228q0 11 2.5 23t10 21.5t20.5 15.5t34 6h188q31 0 51.5 -14.5t20.5 -52.5v-227h-327z" />
    <glyph glyph-name="uniE600" unicode="&#xe600;" 
d="M992 727h-960q-13 0 -22.5 -9.5t-9.5 -22.5v-22q0 -13 9.5 -22.5t22.5 -9.5h960q13 0 22.5 9.5t9.5 22.5v22q0 13 -9.5 22.5t-22.5 9.5zM992 -41h-960q-13 0 -22.5 -9.5t-9.5 -22.5v-22q0 -13 9.5 -22.5t22.5 -9.5h960q13 0 22.5 9.5t9.5 22.5v22q0 13 -9.5 22.5
t-22.5 9.5zM32 385h491q13 0 22.5 9.5t9.5 22.5v22q0 13 -9.5 22.5t-22.5 9.5h-491q-13 0 -22.5 -9.5t-9.5 -22.5v-22q0 -13 9.5 -22.5t22.5 -9.5zM32 129h619q13 0 22.5 9.5t9.5 22.5v22q0 13 -9.5 22.5t-22.5 9.5h-619q-13 0 -22.5 -9.5t-9.5 -22.5v-22q0 -13 9.5 -22.5
t22.5 -9.5z" />
    <glyph glyph-name="uniE601" unicode="&#xe601;" 
d="M514 812q-105 0 -200 -40.5t-163.5 -109t-109.5 -163.5t-41 -199t41 -199t109.5 -163.5t163.5 -109t199.5 -40.5t199 40.5t162.5 109t108.5 163.5t40.5 199q0 70 -18.5 136t-51 122.5t-79.5 103.5t-103 80t-122.5 51.5t-135.5 18.5zM586 39q0 -12 -4.5 -23t-11.5 -19.5
t-16.5 -15.5t-20.5 -10.5t-22 -3.5q-29 0 -52.5 21.5t-23.5 50.5v297q0 29 20.5 50t48.5 21q18 0 37 -9.5t32 -26t13 -35.5v-297zM513 472q-31 0 -53.5 23.5t-22.5 57t22.5 57t53.5 23.5t53.5 -23.5t22.5 -57t-22.5 -57t-53.5 -23.5z" />
    <glyph glyph-name="uniE602" unicode="&#xe602;" 
d="M512 812q-139 0 -257 -68.5t-186.5 -186.5t-68.5 -257t68.5 -257t186.5 -186.5t257 -68.5t257 68.5t186.5 186.5t68.5 257t-68.5 257t-186.5 186.5t-257 68.5zM489 391q0 -9 -3.5 -17.5t-9.5 -14.5t-14 -9.5t-18 -3.5h-15v-16h-1q1 -4 1 -7v-228q0 -9 -6.5 -16t-15.5 -7
t-16 7t-7 16v228q0 4 2 7h-2v16h-15q-18 0 -31.5 13t-13.5 32v91q0 10 4 18.5t11 15t15 9.5v-126q0 -8 8 -8q2 0 3.5 1t2.5 3t1 4v129h30v-129q0 -3 2.5 -5.5t5.5 -2.5q7 0 7 8v129h30v-129q0 -8 8 -8q2 0 3.5 1t2.5 3t1 4v126q9 -3 16 -9.5t10.5 -15t3.5 -18.5v-91z
M655 336v-5h-2q1 -2 1.5 -4t0.5 -4v-228q0 -9 -7 -16t-16 -7q-4 0 -7 1.5t-6 3.5t-5 5t-3 6t-1 7v228q0 2 0.5 4t0.5 4h-1v5q-14 7 -24 20.5t-15.5 32.5t-5.5 40q0 41 19.5 70t47.5 29q18 0 34 -13.5t25 -36t9 -49.5q0 -32 -12.5 -57.5t-32.5 -35.5z" />
    <glyph glyph-name="uniE603" unicode="&#xe603;" 
d="M889 220q-2 6 -10.5 10.5t-18.5 5.5l-164 18q45 72 71.5 133.5t26.5 106.5q0 29 -5 57.5t-14.5 54t-23.5 49t-32 44.5t-38.5 38.5t-44.5 31t-50 23.5t-54.5 15t-57.5 5q-87 0 -161 -42.5t-117 -115.5t-43 -160q0 -89 110 -257l-234 26q-13 1 -21 -3q-5 -3 -6.5 -6
t-1.5 -7l63 -386q3 -16 26 -19l296 -43q3 -1 5 -1l6 1l283 33l313 -43q3 -1 6 -1q6 0 10.5 1t8.5 3q9 6 6 16zM473.5 680q66.5 0 113.5 -46.5t47 -112.5q0 -13 -2 -26t-6 -24.5t-10 -22.5t-13 -21t-16 -18.5t-18.5 -16t-21 -13t-23 -9.5t-24.5 -6t-26 -2q-67 0 -113.5 46.5
t-46.5 112.5t46.5 112.5t113 46.5zM585 74l-22 -3q11 14 17 22zM56 227l219 -25l33 -156l-226 29zM117 -125l-28 164l227 -30l36 -167zM349 117q26 -34 52 -67l-36 -4zM410 -159l-37 168l57 7l44 -51q22 25 55 64l66 8l44 -168zM622 148q27 36 53 75l160 -18l51 -161
l-243 30zM699 -132l-46 169l245 -31l55 -173z" />
    <glyph glyph-name="uniE604" unicode="&#xe604;" 
d="M512 631q-69 0 -161 -38t-168.5 -90t-129.5 -109.5t-53 -93.5t53 -93.5t129.5 -109.5t168.5 -90t161 -38t161 38t168.5 90t129.5 109.5t53 93.5t-53 93.5t-129.5 109.5t-168.5 90t-161 38zM512 68q-93 0 -158.5 68t-65.5 164t65.5 164t158.5 68t158.5 -68t65.5 -164
q0 -104 -75 -173q-65 -58 -149 -59zM512 466q-43 0 -80 -22.5t-58.5 -60.5t-21.5 -83q0 -69 47 -117.5t113 -48.5q43 0 80 22.5t58.5 60.5t21.5 83q0 69 -47 117.5t-113 48.5z" />
    <glyph glyph-name="uniE605" unicode="&#xe605;" 
d="M712 -212l-507 512l508 512l106 -107l-401 -405l401 -405z" />
    <glyph glyph-name="uniE606" unicode="&#xe606;" 
d="M1024 546l-326 -230v138q-322 0 -449 -209q-53 -87 -62 -187q2 86 21 159t48 124t69.5 92.5t79.5 67t84.5 44.5t79 27.5t67 13.5t45 5.5t17.5 0.5v184zM187 58v-6q0 -3 -0.5 -6.5t-0.5 -5.5q0 7 1 18zM93 592v-676h745v360l93 66v-426q0 -38 -27.5 -65t-65.5 -27h-745
q-38 0 -65.5 27t-27.5 65v676q0 38 27.5 65t65.5 27h605q-7 0 -20.5 -0.5t-53.5 -5.5t-80 -13.5t-93.5 -27.5t-99.5 -45h-258z" />
    <glyph glyph-name="uniE607" unicode="&#xe607;" 
d="M650 208q1 1 1 6v2v62l-1 4h1v17h-1v-17v-36v-38zM650 207v-13v-4h1v17h-1zM650 207v1v-1zM508 355h2h4q1 16 -6 34.5t-26 38.5q-6 -2 -10 -7t-2 -17.5t15 -28.5l9 -20h14zM708 244.5q0 15.5 -16.5 26t-40.5 11.5v-4q2 -21 0 -62v-9q24 0 40.5 11t16.5 26.5zM512 812
q-139 0 -257 -68.5t-186.5 -186.5t-68.5 -257t68.5 -257t186.5 -186.5t257 -68.5t257 68.5t186.5 186.5t68.5 257t-68.5 257t-186.5 186.5t-257 68.5zM779 140q-7 -4 -25 -9q-44 -14 -89 -24q-17 -16 -59.5 -25.5t-95.5 -9.5q-103 0 -148 30q-55 11 -99 30q-24 6 -24 12
q0 17 127 26v147q0 8 17.5 16t46 14t60.5 7q-4 14 -18 28q0 1 -1.5 2t-4 5t-4 7.5t-2 8.5t1 9t7 8t13.5 7l-2 2l-3 3q-2 3 -6 7.5t-10.5 17.5t-6.5 24.5t12 23.5t38 19l7 2q-4 -1 -7 -2q-10 -3 -17.5 -8.5t-13.5 -17t0.5 -32.5t28.5 -49q2 -3 5.5 -9.5t10 -24t6.5 -30.5
q1 0 2.5 -0.5t3.5 -0.5h2q28 31 -8 74q-1 2 -3 5t-5.5 11.5t-3 15.5t8 14t23.5 10l7 1h-4q-2 -1 -3 -1q-41 -10 -5 -67l3 -5l4 -12t3.5 -17t-2.5 -16.5t-11 -12.5q23 -2 44 -5.5t36.5 -8.5t25 -11t9.5 -12v-18q35 0 59.5 -16t24.5 -39q0 -11 -6.5 -21t-18 -17t-27 -11.5
t-32.5 -4.5v-20q29 -2 53.5 -4.5t41.5 -6t26.5 -7t9.5 -7.5q0 -1 -0.5 -1.5t-0.5 -1.5l4 1q-1 -1 -6 -3zM520 336q-7 -16 -25 -22q9 8 14 22h-1h-6h-6q-1 -5 -4.5 -9.5t-10.5 -6.5l2 2q1 1 3.5 5t3.5 9q-40 -1 -67 -6t-27 -12q0 -5 15 -9t41 -6.5t56 -2.5q47 0 79.5 5
t32.5 13q0 7 -29 12t-71 6zM366 154v9q-31 -4 -48 -8.5t-17 -9.5q0 -13 85 -20q-20 13 -20 29zM651 163v-9q0 -17 -15 -29q26 2 45 5t29.5 7t10.5 8q0 11 -70 18z" />
    <glyph glyph-name="uniE608" unicode="&#xe608;" horiz-adv-x="1025" 
d="M937 450h-127h-4q-3 0 -10 2t-12.5 6t-10 12.5t-4.5 20.5q-1 21 -1 46q0 11 21 36.5t21 47.5v42v5q0 3 -1.5 12t-4 17.5t-8.5 18.5t-14.5 17t-22.5 12t-31 5h-44q-3 0 -7 -1.5t-15.5 -7t-21.5 -14t-21.5 -25t-19.5 -36.5q-8 -24 -19 -52t-30 -70t-41.5 -79t-48.5 -71
t-57 -54t-61 -20v44q0 1 -0.5 2.5t-1.5 6t-2.5 8t-5 8.5t-8 8.5t-12 6t-16.5 2.5h-252q-1 0 -2.5 -0.5t-6 -1t-9 -2.5t-9.5 -5t-8.5 -7t-6 -11t-2.5 -15v-470v-1v-4l2 -6q0 -3 1.5 -7t3.5 -7t5 -6.5t7.5 -6t10.5 -4t13 -1.5q5 0 255 -1q2 0 4.5 0.5t10.5 3.5t13.5 7t10.5 13
t5 20l-2 42l86 1q3 0 8 -0.5t18 -3.5t23.5 -7.5t21.5 -14t16 -21.5q3 -9 7 -16t8.5 -11t8.5 -6.5t7.5 -3.5t6.5 -1.5t4 -0.5l2 1h340q5 0 13.5 0.5t30.5 7t39 18.5t30.5 38t13.5 62v385l-5 28q-20 58 -82 59zM982 -22q0 -3 -1 -9t-6 -20.5t-13 -25.5t-25 -20.5t-40 -9.5
h-299h-2q-1 0 -5 1t-7.5 2.5t-8 4t-8 6.5t-7 10.5t-5.5 13.5q-5 26 -16.5 37.5t-24.5 11.5l-174 -1v302l28 -1q95 9 165 129q10 19 20 40q35 81 61 135t35 67l8 13q0 1 0.5 2.5t3 6.5t5 9t7 9t9.5 8.5t12 6t15 2.5q21 0 33 -3t19.5 -12.5t7.5 -26.5v-47q-24 -11 -34.5 -31.5
t-9.5 -35.5l1 -15v-47q0 -39 21 -60.5t42 -23.5l21 -2l89 2q3 0 9 -0.5t20 -4.5t25 -11.5t20 -25.5t9 -43v-343z" />
    <glyph glyph-name="uniE609" unicode="&#xe609;" 
d="M483 229q-1 0 -2 1q-1 -2 -3 -2l-99 -11q20 1 39 -2t32.5 -7t24.5 -8t16 -6l5 -3q60 -30 131 -23v16v24v28zM627 244q-1 58 -7 63l-4 1q-8 -7 -3 -65zM634 184l-1 -15q14 1 27.5 4t26.5 7v4h-53v0zM687 247q-1 55 -7 60l-5 2q-9 -4 -5 -61q0 -1 1 -2zM512 812
q-139 0 -257 -68.5t-186.5 -186.5t-68.5 -257t68.5 -257t186.5 -186.5t257 -68.5t257 68.5t186.5 186.5t68.5 257t-68.5 257t-186.5 186.5t-257 68.5zM416 515v9q0 1 1 2.5t2 1.5q4 0 4 -4v-9q1 0 2.5 0.5t2.5 0.5q3 -1 9 -2.5t20.5 -7.5t25.5 -14t21 -23t10 -33
q-2 2 -6 4.5t-14.5 2.5t-17.5 -9q-1 0 -1.5 1t-2.5 2.5t-4.5 3t-6.5 2.5t-7.5 1t-8.5 -2t-10 -6q-1 1 -2 1.5t-4 2.5t-6 3v-148v-1l87 1q4 0 6 -2h1q1 0 1 -1l54 -30q4 -2 3 -4.5t-5 -0.5l-54 31q-2 1 -2 2l-1 -1l1 -4v-22q0 -6 -6 -6q-1 0 -2.5 1t-2.5 2.5t-1 2.5v22
q0 2 1 4l-80 -1v-3v-22q0 -1 -0.5 -2.5t-2 -2.5t-3.5 -1q-6 0 -6 6v22q0 2 0.5 3t0.5 2v1l-41 43l-20 -68q-1 -1 -2.5 -0.5t-0.5 1.5l21 70l-16 16q-4 5 -2 6.5t7 -2.5l14 -15l1 -1l43 -46v0v149q-12 0 -22 -10q-19 24 -38 0l-6 6q-4 4 -15 4.5t-20 -10.5l1 4q0 4 3 10.5
t7 14.5t12 16.5t18 15.5t25.5 12.5t34.5 7.5zM650 94q-89 -29 -159 12q-75 44 -161 11q0 1 -2 2.5t-3 2.5q19 8 39 11.5t36.5 3.5t31.5 -2t26.5 -6t20 -7.5t13.5 -5.5l4 -3q30 -16 64.5 -19.5t58.5 0.5t48 13q-2 -2 -4 -3.5t-4.5 -3.5t-4.5 -3.5t-4 -2.5zM699 135
q-10 -5 -21 -9t-25.5 -8t-29 -6.5t-31.5 -3t-33.5 1.5t-34.5 7.5t-35 14.5q-86 48 -183 10l-5 6q55 19 98 18t69 -13l27 -12q96 -48 213 5q-2 -3 -4 -5.5t-5 -5.5zM725 168q-16 -10 -38.5 -18.5t-54.5 -15t-69.5 -1.5t-70.5 23q-40 22 -85.5 25t-70.5 -3.5t-46 -16.5
q0 1 -1 2q-2 3 -3 4q59 27 106 24t76 -13t29 -13q28 -14 58.5 -19t55.5 -3.5t50.5 8t40.5 12.5t28 12l-1 -1q-2 -4 -4 -6zM760 241l-65 -2v-23h1v-2v-2q0 -2 -0.5 -4.5t-0.5 -5.5v-4v-6v-4v-5q28 9 51 22l-1 -4l-1 -1q-10 -8 -32.5 -18t-57.5 -20t-79.5 -6.5t-83.5 25.5
q-28 15 -58.5 21.5t-53.5 6t-46.5 -5.5t-35.5 -10t-21 -9q-1 0 -2 2q-2 3 -2 4q31 16 65 23l-72 -8l-3 6l214 24l3 -1q1 3 4 4l124 5q-4 18 -0.5 50t19.5 23q5 -32 7 -72l30 2q-1 7 0 20.5t2 26.5t7 20.5t14 2.5q6 -30 8 -69l67 3h1q0 -2 -0.5 -3.5t-1 -2.5t-0.5 -3z
M633 236q1 -9 1 -18l3 1h50v5v4v6v4zM634 211v-5v-4v-6v-4h53v8v10h-50z" />
    <glyph glyph-name="uniE60A" unicode="&#xe60a;" 
d="M512 812q139 0 257 -68.5t186.5 -186.5t68.5 -257t-68.5 -257t-186.5 -186.5t-257 -68.5t-257 68.5t-186.5 186.5t-68.5 257t68.5 257t186.5 186.5t257 68.5z" />
    <glyph glyph-name="uniE60B" unicode="&#xe60b;" 
d="M741 757v-514l253 228q-33 93 -99 167.5t-154 118.5zM715 770q-47 21 -98.5 31.5t-104.5 10.5q-26 0 -51.5 -2.5t-50 -7.5t-48.5 -12l351 -355zM511 503q-83 0 -142 -58.5t-59 -141.5t59 -142t142 -59q55 0 101.5 27t73.5 73t27 101q0 40 -16 77.5t-43 64t-64.5 42.5
t-78.5 16zM1003 443l-368 -341h349q40 95 40 198q0 72 -21 143zM697 -177q87 34 156.5 96t112.5 144h-508zM282 -157v523l-254 -231q32 -95 98 -171t156 -121zM330 778q-87 -33 -156 -93.5t-113 -141.5h503zM308 -169q98 -43 204 -43q78 0 152 23l-354 362zM44 508
q-44 -100 -44 -208q0 -67 19 -136l369 344h-344z" />
    <glyph glyph-name="uniE60C" unicode="&#xe60c;" 
d="M1024 719l-93 93l-419 -419l-419 419l-93 -93l419 -419l-419 -419l93 -93l419 419l419 -419l93 93l-419 419z" />
    <glyph glyph-name="uniE60D" unicode="&#xe60d;" 
d="M512 812q-139 0 -257 -68.5t-186.5 -186.5t-68.5 -257t68.5 -257t186.5 -186.5t257 -68.5t257 68.5t186.5 186.5t68.5 257t-68.5 257t-186.5 186.5t-257 68.5zM638 508h54v-107l-54 44v63zM692 73h-145v109q1 2 0.5 5t-5.5 8t-14 5h-56q-8 0 -12 -4.5t-4 -8.5v-5l1 -109
l-145 -1v218l191 165l189 -165v-217zM711 291l-207 183l-212 -183h-53l266 237l269 -237h-63z" />
    <glyph glyph-name="uniE60E" unicode="&#xe60e;" horiz-adv-x="1025" 
d="M945 -212h-866q-33 0 -56 21.5t-23 51.5v768q0 20 10.5 37t28.5 26.5t40 9.5h39v-109q0 -12 4 -23.5t11.5 -20.5t17 -15.5t21.5 -10.5t25 -4h79q16 0 30.5 6t25 16t16.5 23.5t6 28.5v109h316v-109q0 -20 10.5 -37t28.5 -27t39 -10h79q33 0 56 21.5t23 52.5v109h39
q11 0 21 -2.5t19 -7t16 -11.5t12 -15t8 -17.5t3 -19.5v-768q0 -30 -23 -51.5t-56 -21.5zM945 446h-866v-585h866v585zM631 232q-5 -4 -13 -10t-15 -11t-14 -11t-13 -12t-10 -12q-5 -6 -8.5 -12.5t-5.5 -11.5t-4.5 -11.5t-4 -11.5t-4.5 -13.5t-4 -14.5q-6 -18 -10.5 -43
t-6.5 -52h-86q6 38 14 70.5t18 54.5q16 36 69 97h-141v73h239v-69zM788 556q-22 0 -40 10t-28.5 26.5t-10.5 36.5v110q0 15 6 28.5t16.5 23t25.5 15.5t31 6q32 0 55 -21.5t23 -51.5v-110q0 -15 -6 -28.5t-16.5 -23t-25 -15.5t-30.5 -6zM236.5 556q-32.5 0 -55.5 21.5
t-23 51.5v110q0 30 23 51.5t55.5 21.5t55.5 -21.5t23 -51.5v-110q0 -30 -23 -51.5t-55.5 -21.5z" />
    <glyph glyph-name="uniE60F" unicode="&#xe60f;" 
d="M1022 347h-1q-1 8 -4 14.5t-8 11.5t-11.5 8t-14.5 4h-8h-15v1q-8 0 -15 1.5t-13.5 4.5t-12 7.5t-9.5 10t-7 11.5q-4 8 -6 17q-7 20 -16 38q-5 7 -7 14v1q-2 5 -3 10t-1 11q0 26 19 45v0l13 13v1h1q11 12 11.5 28t-9.5 28v1q-7 9 -15 17.5t-16 16.5q-17 17 -35 32
q-11 9 -26 9.5t-26 -8.5l-10 -9l-8 -9l-1 1q-9 -10 -21 -14.5t-24 -4.5t-24 4q-4 2 -9 5q-11 5 -22.5 10t-22.5 9q-2 0 -4 1t-4 1l-1 1q-11 4 -21 13q-15 16 -18 38q-1 8 0 16v11q0 7 -2.5 14.5t-7.5 13t-11.5 9t-13.5 5.5h-7q-23 2 -43 2q-21 0 -43 -2v0h-7
q-8 -2 -14.5 -5.5t-11 -9t-7 -13t-2.5 -14.5v-19q0 -21 -11.5 -37t-30.5 -23q-1 -1 -2 -1.5t-3 -0.5q-25 -9 -49 -20q-1 -1 -2 -1.5t-2 -0.5q-13 -6 -27 -6q-26 0 -45 19v-1l-13 14q-11 11 -26.5 12.5t-28.5 -7.5l-5 -5h-1q-4 -4 -8 -7l-8 -8q-4 -3 -7 -6l-8 -8
q-15 -15 -29 -31q-2 -3 -5 -6q-9 -13 -7.5 -28.5t12.5 -26.5l14 -13q14 -14 17.5 -34t-4.5 -38q-1 -1 -1.5 -2t-1.5 -2q-6 -12 -11 -24.5t-9 -24.5l-2 -6q-5 -12 -14 -22q-10 -9 -21.5 -14t-24.5 -5h-19q-15 0 -27 -10t-15 -25v-7q-2 -21 -2 -43v0v-1q0 -21 2 -42v-7
q3 -15 15 -25t27 -10h19q21 0 37 -11.5t23 -29.5q1 -3 2 -5q4 -13 9 -25.5t11 -24.5q1 -1 2 -3v-1q6 -13 6 -27q0 -26 -19 -45h1l-13 -13h-1v0v-1q-11 -11 -12.5 -26t7.5 -27q3 -5 5 -7q14 -16 29 -31t31 -29q2 -1 7 -5q2 -2 5 -3.5t6.5 -2t6.5 -1t6 -0.5t6.5 0.5t6.5 1.5
t6 2.5t5 3.5l10 9l9 9q10 9 22 14t25 4.5t25 -5.5q1 -1 3 -2h1q24 -12 50 -21q1 -1 4 -1l6 -4l6 -2q3 -2 5.5 -4.5t5.5 -4.5q19 -19 19 -45v-19q0 -17 11 -29t27 -14q23 -2 47 -2q12 0 23.5 0.5t23.5 1.5q11 2 19.5 7.5t13.5 15t5 20.5v19q0 9 3 18t7.5 16.5t11.5 13.5
t15 10q7 3 14 4q22 8 41 17q2 2 4 3l4 2l4 2q11 4 23 4q24 0 42 -16l5 -6l11 -11q8 -7 17.5 -10t19.5 -1.5t19 7.5q3 2 4 3q17 15 32 30q16 16 30 32l3 5q9 12 8.5 27t-11.5 26l-3 3l-12 12q-14 14 -17.5 33.5t4.5 37.5l3 6q11 23 20 48l2 6q2 6 6 11.5t8 10.5q19 19 46 19
h18q17 0 29.5 12t12.5 28h1q2 23 2 45q0 8 -0.5 16t-0.5 15.5t-1 15.5zM774 300q0 -44 -14 -85q-5 -15 -13 -30q-9 -19 -21.5 -37t-28.5 -33q-31 -31 -70 -51l-10 -4l-10 -4l-10 -4q-13 -5 -27 -8t-28.5 -4.5t-29.5 -2.5h-1q-22 0 -43 4t-41 10q-16 6 -31 13q-13 6 -25 14
t-23.5 17t-21.5 19q-31 31 -50 70q-8 15 -13 31q-7 20 -10.5 41t-3.5 43.5t3.5 44t10.5 41.5q5 16 13 31q9 19 22 37t28 33q31 31 70 50q16 8 31 13q20 6 41 10t43 4h1q22 -1 43.5 -4.5t41.5 -10.5l10 -4l10 -4l10 -4q39 -20 70 -51q10 -10 19 -21t17 -23.5t14 -25.5
q8 -15 13 -30q14 -41 14 -85v0z" />
    <glyph glyph-name="uniE610" unicode="&#xe610;" 
d="M512 701q-157 0 -272 -106q-112 -104 -127 -255q-2 -20 -2 -40q0 -109 54 -201t146 -146t201 -54q65 0 126.5 20.5t110.5 57.5t86 86t57.5 110.5t20.5 126.5q0 82 -32 156t-85.5 127.5t-127.5 85.5t-156 32zM804 227h-293q-15 0 -25.5 10.5t-10.5 25.5v332q0 15 10.5 26
t25.5 11t26 -11t11 -26v-295h256q15 0 25.5 -10.5t10.5 -26.5q0 -5 -1 -9.5t-3.5 -8.5t-6 -7.5t-7.5 -6t-8.5 -3.5t-9.5 -1zM512 812q-104 0 -199 -40.5t-163.5 -109t-109 -163.5t-40.5 -199t40.5 -199t109 -163.5t163.5 -109t199 -40.5t199 40.5t163.5 109t109 163.5
t40.5 199q0 60 -13.5 117.5t-38.5 108t-60 95t-79.5 79.5t-95 60t-108 38.5t-117.5 13.5zM512 -140q-90 0 -171.5 34.5t-140.5 93.5t-93.5 140.5t-34.5 171.5q0 60 15.5 117t44 105.5t69 89t89 69t105.5 44t117 15.5q72 0 139 -22t121 -63t95 -95t63 -121t22 -139t-22 -139
t-63 -121t-95 -95t-121 -63t-139 -22z" />
    <glyph glyph-name="uniE611" unicode="&#xe611;" 
d="M1024 -119q0 -26 -9.5 -45t-23.5 -28t-27.5 -14t-23.5 -5l-9 -1l-266 266q-111 -80 -246 -80q-114 0 -210.5 56t-152.5 152.5t-56 210.5t56 210.5t152.5 152.5t210.5 56t210.5 -56t152.5 -152.5t56 -210.5q0 -45 -10 -89t-27.5 -83t-42.5 -74zM418.5 719
q-88.5 0 -163.5 -43.5t-118.5 -118.5t-43.5 -163.5t43.5 -164t118.5 -119t163.5 -43.5t164 43.5t119 119t43.5 164t-43.5 163.5t-119 118.5t-164 43.5z" />
    <glyph glyph-name="uniE612" unicode="&#xe612;" 
d="M498 280v-1h1zM544 396l-1 -6l11 9h-7zM503 381l9 21l-4 -2zM500 363q2 -2 3 -2l40 39v1l8 8q-11 11 -25 17zM541 388l1 6l-7 -7h4zM518 370l19 15l-5 -1zM486 433l5 -68h3l19 66q-5 1 -11 2t-11 1q-3 0 -5 -1zM470 261q11 -3 21 -3h5l-4 48l-5 20l-4 -14zM501 199l-4 52
h-6q-12 0 -23 2l-13 -49q5 -2 11 -3t12.5 -1.5t12.5 -0.5h10zM568 366l7 -4h1q-1 4 -1 6zM515 422l7 4v1q-2 2 -5 2zM513 417l2 -6l5 12l-6 -4zM509 403l4 2l1 3l-2 5zM636 345q-3 2 -4.5 5t-1.5 6q0 5 5 5q0 3 -1 7l-50 -9q1 -6 1 -13v-7l50 -5q1 6 1 11zM543 308v-1l7 1
l-9 5zM540 310l-1 5l-20 12zM527 340l23 -4l-3 2zM561 294q2 3 4 5l-7 4zM553 335l3 -1l4 3l-10 1zM509 340l-1 -2l59 -35q6 11 8 23zM526 354l24 4l-4 1zM554 358l1 1l4 4l-10 -3zM566 365l-4 -1l-4 -5l14 2zM567 337h-3l-6 -3l13 -3zM577 336h-8l5 -6h2q1 3 1 6zM578 346
q0 6 -1 12l-67 -11v-1l67 -6q1 3 1 6zM633 318l-6 12l-9 -9zM616 369l5 12l-14 -4l8 -8h1zM604 376l-4 -10l13 2l-8 8h-1zM583 370l-1 -2q1 -1 1 -5l10 2l-9 5h-1zM596 366h1l5 9l-15 -4zM593 283v-13l13 5zM605 255l-41 31q-7 -9 -16 -15l31 -42q14 11 26 26zM609 260
l-1 13l-14 -5l13 -10q1 1 1 1.5t1 0.5zM584 333q0 -2 -1 -5l9 -1l-6 8zM572 295h-2l-2 -3q0 -1 -1 -2l8 -7zM635 330l-6 1l5 -9q1 4 1 8zM616 322l10 9l-17 2l5 -11h2zM500 275l-1 1l1 -15l2 4zM595 326h2l8 7l-17 2zM600 325l12 -2l-5 9zM534 284l-8 2l6 -12zM558 291
l-53 41l-1 -1l40 -54q2 1 4 2.5t3.5 3.5t3.5 4t3 4zM572 232l-4 -11q3 3 8 6zM541 274l-6 7l-1 -10l1 -1zM503 262l-2 -4q1 1 3 1zM522 300l-14 19l13 -24l1 4v1zM523 298v-7l2 -3l7 -2zM565 220l5 12l-15 1l8 -14zM570 234l-10 14l-6 -13zM545 266h-2q-2 -1 -5 -2l5 -9z
M558 251l-11 15l-2 -14v-1h13zM558 248l-12 1l7 -12zM549 401h8l1 1q-3 2 -4 4zM512 225l-8 -8l11 -6l-1 7zM473 338l-65 -18q2 -8 5.5 -14.5t7.5 -12.5l54 42q-1 2 -2 3zM408 277v-11l12 12h-10zM451 244l2 -3l1 6l-2 -1zM510 232l-3 12l-5 -8zM457 257l-4 -8l2 1zM422 281
l-4 4l-6 -5h10v1zM438 384l-1 1l-7 -1l10 -6zM473 352v1v1l-58 34q-3 -5 -5 -10.5t-4 -12.5zM425 387l3 -1l7 1l-12 9zM403 411l-11 -4l14 -9zM390 408l12 4l-12 9v-13zM409 397l3 1l2 2q1 1 1 2l-9 7zM417 392l6 -4l-3 9q-1 -2 -3 -5zM397 346v6l-51 5v-8h2q2 0 3.5 -1
t1.5 -3q0 -3 -2 -6.5t-5 -6.5q1 -2 1 -4v-4l51 8q-1 2 -1 4v5v5zM341 305l7 2q-1 4 -2 9zM349 377l18 -3h1v-1l18 -3l13 -3q2 7 4 13t6 12l-44 26l-4 -6q1 -1 1 -2v-1q0 -3 -2 -6.5t-6 -6.5q-3 -9 -5 -19zM367 422l3 -3v8q-1 -2 -3 -5zM376 257l40 31q-3 4 -5 8l-4 6
q-2 4 -3.5 8t-2.5 8l-49 -15q1 -4 3 -8.5t4 -9.5h3q5 0 5 -4t-3 -7q6 -10 12 -17zM530 201l2 -10q1 1 2 1h1q1 5 5 5h8q9 3 18 8l-5 9q-15 -8 -31 -13zM638 330q0 -3 -0.5 -6t-1.5 -6l11 11zM606 435l-40 -32q10 -13 15 -29l49 14q-4 11 -7 19q-3 2 -5 4.5t-3 4.5t-1 5l1 1
q-4 6 -9 13zM611 263q2 4 4 7l-5 2zM625 290q5 11 7 24l-17 4h-1l-32 6q-2 -13 -9 -25l44 -26q2 4 4 7q-1 3 -1 5q0 5 4 5h1zM617 268q-1 -1 -2 -3t-2 -3.5t-2 -2.5l14 5zM634 385q0 -3 0.5 -5.5t1.5 -5.5l6 13zM498 328l17 -67q9 3 16 7zM430 333h-2l-3 -4l9 2zM484 408
l-1 5l-4 3l2 -12zM484 405l-2 -4l4 -19zM520 441l10 5v1l-5 9zM476 432l1 -8l5 7l-1 2q-4 -1 -5 -1zM466 291l10 37l-45 -45q3 -4 7 -7t8.5 -5.5t9.5 -4.5zM434 292h-8l-2 -2q1 -2 4 -5zM483 416l-1 12l-4 -7v-2zM509 353l65 19q-3 7 -6 13.5t-8 12.5l-53 -42q1 -2 2 -3z
M574 415l-1 10l-10 -10l10 -1zM537 462l-12 -3l6 -9zM577 282l11 3l-13 8zM519 438l2 -2q1 -1 4 -2l4 9zM560 412v-2l3 -4l8 6l-10 1zM404 346v-6q0 -4 1 -7l67 12v0l-68 7v-4v-2zM591 284l-12 -4l12 -9v13zM441 382l2 -5l20 -13zM416 355l2 -1l5 4l-12 2zM405 356l8 -1
l-5 6h-3v-5zM438 295v6l-9 -7h7zM455 351l-22 5l2 -3zM429 356l-3 1l-5 -3l11 -1zM463 321l-16 -13h3zM441 303l-1 -5l8 8h-4zM455 338l-21 -4l3 -2zM415 326l-7 4l-1 -1l-1 -1q0 -2 1 -4zM418 327l4 1l3 4l-13 -2zM556 305l-3 2l-7 -1l12 -10zM605 441l-2 14l-6 -6z
M614 446q-5 5 -9 10l2 -15zM594 452l8 7l-9 9q-2 -1 -3 -1h-3q-10 0 -16.5 6t-6.5 13v1q-5 3 -11 5l-3 -9q3 -2 6.5 -3.5t7 -3.5t6.5 -4t6.5 -4.5t6.5 -5.5l6 -4q3 -3 5 -6zM646 374q0 3 -0.5 6t-1.5 6l-6 -13zM616 425h3h9l-4 6l-4 6l-4 6l-8 -6q5 -6 8 -12zM550 494
q-4 1 -6.5 2t-5.5 2l8 -12zM632 389l10 3q-1 4 -3 10h-1q-6 0 -11 3q3 -9 5 -16zM544 485l-8 12l-2 -8zM466 483v-1l12 -6l-1 16h-2zM479 457l-1 13l-8 -8zM470 465l8 8v1l-12 6zM491 495q20 0 39 -5l3 10q-11 3 -22 4h-1h-2q-3 0 -6 1q-6 0 -11 1q-6 0 -11 -1l1 -10h3h4h3z
M539 484q-2 1 -6 2l-1 -4zM638 334l10 -1v3l1 2q-6 1 -10 4q0 -2 -0.5 -4t-0.5 -4zM569 207q6 4 12 7l-16 1zM567 217l16 -1l-6 8q-5 -3 -10 -7zM560 216l-25 46q-9 -5 -18 -8l12 -50q8 2 15.5 5.5t15.5 6.5zM518 188l-12 7h-1l1 -8q6 0 12 1zM518 199q-4 -1 -9 -2l-1 -1
l11 -6zM505 196l1 1h-1v-1zM628 290h11q2 5 3.5 10.5t2.5 10.5l-10 2q-2 -12 -7 -23zM646 315q1 7 2 11l-10 -9zM638 361h10q0 5 -1 9l-10 -2q0 -1 0.5 -3t0.5 -4zM592 236q0 1 1 1h13l4 5q3 2 5 5l-8 6q-4 -4 -7.5 -8.5t-7.5 -8.5zM465 485l7 6q-5 0 -7 -1v-5zM610 256
l7 -6q5 6 8 12zM619 272l9 -5q1 1 2 3q-3 1 -4.5 3t-3.5 4q-1 -2 -3 -5zM589 234q-5 -4 -8 -7l6 -8q4 3 5 4q-3 4 -3 9v2zM349 303l-10 -3q3 -7 6 -15h11q-4 9 -7 18zM344 361q0 6 1 12l-11 -11zM335 317q2 -7 3 -13l7 15zM476 505q-6 -1 -13 -2l13 -7v9zM343 357l-10 1v-9
h10v8zM368 245q4 -5 8 -9l-1 15zM363 271q-4 -4 -8 -6q1 -3 3 -6t4 -5.5t4 -5.5l7 7q-5 7 -10 16zM429 100v4l-1 -4h1zM500 179v-1q0 -4 -3 -8.5t-8.5 -7.5t-11.5 -3t-11.5 3t-8.5 7.5t-3 8.5q0 3 2 4q-5 1 -7 2l-19 -75h112l-19 73q-11 -3 -23 -3zM512 812
q-139 0 -257 -68.5t-186.5 -186.5t-68.5 -257t68.5 -257t186.5 -186.5t257 -68.5t257 68.5t186.5 186.5t68.5 257t-68.5 257t-186.5 186.5t-257 68.5zM751 72h-472v15h104v13h33l23 87q-15 5 -28 12q-3 -3 -8 -5t-10 -2q-9 0 -16 6t-7 13q0 2 1.5 3t3.5 1h13q-25 20 -40 47
h-5q-9 0 -16 6t-7 13q0 4 5 4h12q-4 10 -6.5 20t-3.5 21q-4 1 -8 2.5t-7 4.5t-4.5 6t-1.5 6q0 4 5 4h15q0 11 1.5 21.5t4.5 20.5q-4 1 -7 3t-5 4.5t-3 5t-1 5.5q0 2 1 3.5t3 1.5h20q8 19 21 35q-13 6 -13 16q0 5 5 5h27q16 14 35 24q-11 7 -11 16q2 4 5 5h37q2 0 3 -1.5
t1 -3.5v-2q19 5 40 5q-3 2 -4 4.5t-1 5.5q0 2 1.5 3.5t3.5 1.5h37q5 0 5 -5q-1 -8 -8 -14q26 -5 49 -19h32q5 0 5 -4q0 -9 -10 -15q7 -7 13.5 -14t12 -15t10.5 -17h20q5 0 5 -4q0 -12 -15 -18q2 -5 3.5 -10t2.5 -10.5t2 -10.5t1 -11h17q4 0 4 -5q0 -6 -6 -11.5t-14 -6.5
q-1 -25 -10 -48h15q5 0 5 -5q0 -7 -7 -13t-16 -6q-4 0 -7 1q-8 -16 -20 -30h15q4 0 4 -5q0 -7 -7 -13t-16 -6q-8 0 -15 5q-15 -13 -32 -21h12q2 0 3.5 -1.5t1.5 -3.5q0 -4 -3 -8.5t-8.5 -7.5t-11.5 -3q-7 0 -13 3.5t-9 8.5l-3 -1l22 -84h45v-14h150v-14zM377 250l1 -14l6 6
q-3 4 -7 8zM441 196l-6 9l-3 -8q4 -1 8 -3zM387 239l-7 -7q10 -9 19 -17h13q5 0 5 -4q0 -3 -2 -6q4 -1 7 -3t6 -3l4 9q-25 12 -45 31zM344 330q-5 -3 -10 -4q0 -3 1 -4l10 1q-1 2 -1 4v3zM416 475h1l-5 9q-7 -4 -12 -8h15zM460 492l-2 10q-7 -1 -13 -3q-8 -7 -18 -8h-1
q-6 -2 -10 -5l5 -9q9 5 19 9t20 6zM414 474h-15l5 -7q3 2 5.5 3.5t4.5 3.5zM392 457q5 4 9 7l-6 9q0 -1 -1.5 -2t-2.5 -2q4 0 4 -4t-3 -8zM475 494l-13 7l2 -8q5 1 11 1zM447 430q11 6 23 8l-10 51q-20 -4 -38 -14zM372 436v-1v-1v1l-8 6q-4 -5 -7 -10l13 5h1h1zM351 393
q-6 -3 -12 -3q-1 -4 -2 -10l9 -2q2 8 5 15zM359 413l3 6l-8 6q-3 -5 -6 -11h9zM385 450l-4 -2q-2 -1 -4.5 -1.5t-4.5 -0.5h-4l-1 -2l8 -6q4 6 10 12zM336 376q-1 -6 -2 -11l10 9zM370 432v1l-14 -5l8 -5q3 4 6 9zM440 228v1h1l12 30q-3 1 -6 2.5t-6 3.5t-5 4l-6 4q-2 2 -5 4
l-36 -36q10 -9 21 -17t23 -13zM423 401l54 -42l1 1l-41 55q-8 -7 -14 -14zM447 421q-2 -1 -3.5 -2t-2.5 -2l4 -6l2 10v0zM436 425l2 -1q2 1 3 2l2 2l-5 9zM447 408l1 -1l8 -2l-7 13zM457 395l1 6l-1 1l-7 2zM434 427l2 12l-12 1zM421 444l5 12l-14 1zM377 437l41 -32
q6 9 15 16l-30 41q-5 -4 -9.5 -8t-8.5 -8.5t-8 -8.5zM388 409v13l-13 -5zM409 460l3 9q-1 -1 -3 -2t-3 -2zM474 372l-14 26l-1 -6zM423 442h13l-8 13zM415 471l-4 -12l16 -1l-9 15q-1 -1 -3 -2zM531 479l8 -12l6 15q-1 0 -2 1zM483 363l2 1l-13 67q-4 -1 -7.5 -2t-7 -2.5
t-7.5 -3.5zM592 444l8 -2q-1 2 -5 5zM589 427l-1 13l-11 -11l12 -3v1zM529 433q15 -7 27 -19l36 36q-9 10 -20 17.5t-24 12.5zM517 201l-1 3l-3 -3h4zM627 383l5 -5q0 1 -0.5 2.5t-0.5 3.5zM590 442l1 -14l12 10q0 1 -1 1zM474 441l2 -1h5l-1 9zM470 460l4 -16l6 9v2z
M526 462l12 3l-8 11zM481 492l4 -51h6q12 0 24 -3l14 49q-3 1 -7 2t-8 1.5t-7.5 1t-7.5 0.5h-8h-3h-4h-3zM372 430l1 -12l14 6l-13 9zM575 427l1 -11l11 9l-11 3zM624 382l-6 -13l16 3l-1 2zM393 265l1 -13l11 11l-11 3zM441 198l2 6q-2 1 -7 3zM391 263l-13 -10l14 -3z
M447 218l-4 6l-6 -14l8 2zM391 249l-11 2q4 -5 6 -7zM444 210l-4 -2q2 -1 4 -1v3zM512 227l-1 2l-9 5l1 -15zM450 229l-5 -1l-1 -2l3 -5zM506 251l-1 1l-1 -1h-3l1 -12l5 8zM509 200l7 7v2l-12 6l1 -15h2h2zM502 186l-1 10h-10q-19 0 -37 5l-3 -10q20 -5 40 -5h11zM368 323
h-1l-5 -12l15 4zM452 239l-2 3l-4 -12l4 2zM400 322q-1 4 -2 6l-7 -1l8 -6zM388 326h-2l-4 -10l15 5zM382 366l-12 3l5 -10zM384 325l-13 -2l8 -7zM366 370l-10 -10l17 -1l-5 10zM359 310l6 12l-16 -2zM355 361l8 9l-15 3zM346 361l7 -1l-5 10q-1 -6 -2 -9zM357 309l-9 8
q2 -6 3 -10zM398 358v5l-8 2l6 -8zM406 275l-10 -7l10 -3v10zM387 365l-2 1l-8 -8l17 -1z" />
    <glyph glyph-name="uniE613" unicode="&#xe613;" 
d="M962 661l62 -63l-623 -623l-1 1l-37 -37l-363 364l61 60l301 -302z" />
    <glyph glyph-name="uniE614" unicode="&#xe614;" 
d="M512 812q-139 0 -257 -68.5t-186.5 -186.5t-68.5 -257t68.5 -257t186.5 -186.5t257 -68.5t257 68.5t186.5 186.5t68.5 257t-68.5 257t-186.5 186.5t-257 68.5zM394 153q-9 0 -18 0.5t-19.5 2.5t-16 3t-19.5 4t-18 3l-92 -46l27 80q-105 75 -105 180q0 95 76.5 161
t184.5 66q96 0 171 -53.5t92 -133.5q-13 1 -25 1q-93 0 -157.5 -61.5t-64.5 -149.5q0 -7 0.5 -14.5t2 -14.5t2.5 -13.5t3 -13.5q-12 -1 -24 -1zM779 60l20 -67l-72 40q-52 -13 -78 -13q-93 0 -157.5 56.5t-64.5 136.5q0 53 29.5 97.5t80.5 70.5t112 26q43 0 83.5 -15.5
t71 -41.5t48.5 -62t18 -75q0 -43 -24.5 -82t-66.5 -71zM294 512q-11 0 -20.5 -4.5t-16 -13t-6.5 -19t6.5 -19t16 -13t20.5 -4.5q8 0 15 2.5t11.5 7.5t7 11.5t2.5 14.5q0 17 -10 27t-26 10zM496 439q16 0 26 10t10 26q0 11 -4.5 19.5t-12.5 13t-19 4.5q-17 0 -30 -10.5
t-13 -26t13 -26t30 -10.5zM590 300q-7 0 -14 -4t-11 -11t-4 -14t4 -14t11 -11t14 -4q8 0 14.5 2.5t11.5 6.5t7.5 9t2.5 11q0 11 -10.5 20t-25.5 9zM748 300q-11 0 -19.5 -9t-8.5 -20q0 -7 4 -14t10.5 -11t13.5 -4q11 0 19 4t12.5 10.5t4.5 14.5q0 11 -10 20t-26 9z" />
    <glyph glyph-name="uniE615" unicode="&#xe615;" 
d="M1024 433q0 103 -68.5 190t-186.5 138t-257 51q-104 0 -199 -30t-163.5 -81t-109 -121t-40.5 -147q0 -93 56.5 -173.5t153.5 -133.5q0 -1 -101 -184l309 117q30 -4 69 -5q0 -1 -0.5 -4.5t-0.5 -5.5q0 -52 20.5 -99.5t55 -81.5t81.5 -54.5t99 -20.5t99.5 20.5t82 54.5
t54.5 81.5t20 99.5q0 98 -66 172q92 97 92 217zM973 44q0 -47 -18.5 -89.5t-49 -73.5t-73.5 -49t-90 -18q-95 0 -162.5 67.5t-67.5 162.5t67.5 162.5t163 67.5t163 -67.5t67.5 -162.5zM838 60h-80v80q0 7 -4.5 11.5t-11.5 4.5q-4 0 -7.5 -2t-6 -6t-2.5 -8v-80h-80
q-4 0 -7.5 -2t-6 -6t-2.5 -8q0 -7 5 -11.5t11 -4.5h80v-80q0 -7 5 -11.5t11 -4.5q5 0 8.5 2t5.5 6t2 8v80h80q5 0 8.5 2t5.5 6t2 8q0 3 -1 6t-3 5t-5 3.5t-7 1.5z" />
    <glyph glyph-name="uniE616" unicode="&#xe616;" 
d="M863 812h-702q-66 0 -113.5 -47.5t-47.5 -113.5v-702q0 -67 47.5 -114t113.5 -47h702q66 0 113.5 47t47.5 114v702q0 66 -47.5 113.5t-113.5 47.5zM579 -98h-161v154h161v-154zM732 355q-20 -29 -78 -75l-38 -29q-16 -12 -26 -26.5t-15 -30.5q-2 -7 -3.5 -16t-2.5 -21
t-1 -26h-147q1 18 2 34t2.5 29.5t3.5 25t4.5 20.5t4.5 16q4 9 10 18.5t15 19.5t21 20.5t26 21.5l40 31q10 7 17.5 15t13.5 17q21 29 21 64q0 41 -23 74q-12 17 -34 25.5t-54 8.5q-62 0 -88 -41t-26 -85h-155q2 38 9.5 70.5t21 59.5t32.5 48.5t44 37.5q63 41 156 41
q121 0 201 -58q27 -20 45 -45.5t26.5 -57t8.5 -69.5q0 -70 -34 -117z" />
    <glyph glyph-name="uniE617" unicode="&#xe617;" 
d="M512 618q-41 62 -97 95t-112 36.5t-111 -17.5t-97.5 -60.5t-68.5 -99t-26 -127.5q0 -39 10.5 -78t25.5 -70t42 -66.5t48.5 -59t58 -56t56.5 -48.5t58 -46q41 -33 82 -64.5t59.5 -45.5t37.5 -30t34 -31q11 11 22.5 21t21 18.5t29.5 24t33.5 26t48 36.5t58.5 45
q49 37 82.5 65t78 73t72 86t47 94.5t19.5 107.5q0 68 -26 127t-68.5 98.5t-97.5 60t-111 17t-112 -36.5t-97 -95z" />
    <glyph glyph-name="uniE618" unicode="&#xe618;" 
d="M0 496l512 -497l512 498l-107 104l-405 -393l-405 393z" />
    <glyph glyph-name="uniE619" unicode="&#xe619;" 
d="M928 -127h-832q-40 0 -68 29t-28 70v525q0 41 28 69.5t68 28.5h160v33q0 41 28 70t68 29h320q40 0 68 -29t28 -70v-33h160q20 0 37.5 -7.5t30.5 -21t20.5 -31.5t7.5 -38v-525q0 -14 -3.5 -26.5t-9.5 -23.5t-15 -20t-19.5 -15.5t-23 -10t-25.5 -3.5zM935 469
q0 19 -13.5 32.5t-31.5 13.5h-197v76q0 19 -13 32.5t-32 13.5h-272q-19 0 -32 -13.5t-13 -32.5v-76h-197q-18 0 -31.5 -13.5t-13.5 -32.5v-460q0 -19 13.5 -32.5t31.5 -13.5h756q18 0 31.5 13.5t13.5 32.5v460zM512 37q-61 0 -112.5 31t-81.5 84t-30 115q0 95 65.5 162.5
t158.5 67.5t158.5 -67.5t65.5 -162.5t-65.5 -162.5t-158.5 -67.5zM512 431q-66 0 -113 -48t-47 -116t47 -116t113 -48q43 0 80 22t58.5 60t21.5 82q0 68 -47 116t-113 48zM512 333q-27 0 -45.5 -19.5t-18.5 -46.5h-32q0 41 28 70t68 29v-33z" />
    <glyph glyph-name="uniE61A" unicode="&#xe61a;" 
d="M559 -119h-94q-104 0 -200 46l-218 -139l30 303q-77 116 -77 256q0 94 37 180.5t99 148.5t148.5 99t180.5 37h94q94 0 180.5 -37t148.5 -99t99 -148.5t37 -181t-37 -181t-99 -148.5t-148.5 -99t-180.5 -37zM559 719h-94q-101 0 -186.5 -50t-135.5 -135.5t-50 -187
t50 -187t135.5 -135.5t186.5 -50h94q101 0 186.5 50t135.5 135.5t50 187t-50 187t-135.5 135.5t-186.5 50zM698 300q-19 0 -32.5 13.5t-13.5 33.5q0 9 3.5 17.5t9.5 15t15 10t18.5 3.5t18 -3.5t14.5 -10t10 -15t4 -17.5q0 -20 -14 -33.5t-33 -13.5zM512 300q-19 0 -33 13.5
t-14 33t14 33t33 13.5q13 0 23.5 -6t17 -17t6.5 -23q0 -20 -14 -33.5t-33 -13.5zM326 300q-13 0 -23.5 6t-17 17t-6.5 24q0 9 4 17.5t10 15t14.5 10t18.5 3.5q19 0 32.5 -13.5t13.5 -33t-13.5 -33t-32.5 -13.5z" />
    <glyph glyph-name="uniE61B" unicode="&#xe61b;" 
d="M374 200q-15 -1 -25.5 -12.5t-10.5 -24.5t11 -21t27 -6q10 1 18.5 6t13.5 13t5 16q0 14 -11 22.5t-28 6.5zM427 215q-13 -9 -5 -22q7 -11 20 -1q12 9 5 21q-1 2 -2.5 3t-3.5 2t-4.5 0.5t-5 -1.5t-4.5 -2zM426 331q-84 -4 -142 -43.5t-58 -95.5q0 -55 58.5 -91.5
t141.5 -32.5t142 48.5t59 99.5t-58 87t-143 28zM502 145q-27 -35 -71.5 -45t-95.5 15q-30 16 -30 50v6q0 4 0.5 15t3 21t9.5 23t17.5 23t28 18.5t40.5 10.5q39 5 66.5 -9.5t37 -37.5t8.5 -48.5t-14 -41.5zM512 812q-104 0 -199 -40.5t-163.5 -109t-109 -163.5t-40.5 -199
t40.5 -199t109 -163.5t163.5 -109t199 -40.5t199 40.5t163.5 109t109 163.5t40.5 199q0 83 -26 161.5t-73 141t-110 110t-141.5 73.5t-161.5 26zM726 167q-22 -46 -75 -79t-114.5 -46.5t-118.5 -9.5q-35 3 -66.5 9t-65.5 18.5t-59.5 30.5t-43.5 47.5t-22 66.5q-1 6 -0.5 18
t12.5 47t37 68q3 5 9 12.5t25.5 29t39 39.5t47.5 37t55 28q22 7 40 9t29 -2t18.5 -10.5t11.5 -16t5 -17.5t1 -18q-7 -21 -4.5 -30t25.5 -2q4 2 10.5 4.5t24.5 8t34 7.5t34 -1t28 -14q14 -14 15.5 -32t-4.5 -30l-5 -11q-1 -1 -1.5 -2t-1.5 -3.5t0 -5t5 -5t11 -4.5
q10 -2 21.5 -7t25.5 -16.5t22 -26.5t8 -39t-13 -52zM634 435q-7 0 -12.5 5.5t-5.5 13t5.5 13t12.5 5.5q3 0 7 0.5t15.5 0.5t22 -2t22.5 -9t20 -17.5t12 -29.5t2 -44l-1 -2q0 -3 -1.5 -6t-4 -5t-5.5 -3t-7 -1q-7 0 -12.5 5t-5.5 13l1 26q-5 51 -65 37zM827 338
q-2 -14 -8.5 -18.5t-17.5 -4.5q-5 0 -10 2t-8.5 5t-5.5 7.5t-2 9.5q0 6 1 12.5t3 9.5l1 4q12 42 -8 88q-18 30 -49.5 47t-53.5 19t-29 -1q-3 -1 -6.5 -2t-6.5 -1.5t-5.5 -1t-4.5 -0.5l-1 -1q-11 0 -19 8t-8 19q0 6 2.5 11.5t7 9t10.5 5.5v0q1 0 1.5 0.5t1.5 0.5q52 10 91 1
q19 -4 37 -12.5t36 -22t31.5 -32.5t22 -42t8 -54t-10.5 -66z" />
    <glyph glyph-name="uniE61C" unicode="&#xe61c;" 
d="M564 326q3 0 6 -0.5t6 -0.5t6.5 -0.5t6.5 -1.5q3 10 1 15q-4 5 -10.5 9t-13.5 7t-14.5 4.5t-15.5 1.5q-2 -4 1 -22q17 -4 27 -12zM559 301q13 -13 17 -34l23 1q2 11 9 23l-13 25q-2 1 -4 1t-4 0.5t-4 0.5h-4q-2 0 -4 0.5t-5 0.5h-4zM504 259q4 -12 15 -25q19 -2 35 0
q11 13 17 29q-5 20 -15 35l-19 1l-17 -1q-2 -3 -4.5 -6.5t-3.5 -7.5l-4 -8l-2 -8t-2 -9zM600 228q2 -1 4.5 -2.5t3.5 -3t3 -3.5t3 -4q15 32 12 66q-3 2 -16 3q0 -3 -1 -6t-2.5 -5.5t-3.5 -5.5zM474 319q8 4 31 6l25 15q0 15 -2 19q-9 2 -21 -1t-23.5 -9.5t-19.5 -14.5
q0 -13 6 -15q0 -1 1.5 -0.5t2.5 0.5zM370 502q-27 0 -46.5 -24t-19.5 -56.5t18.5 -55.5t45 -23t45.5 23t19 55q0 49 -33 72q-14 9 -29 9zM597 225q-6 -4 -12.5 -7.5t-13.5 -6.5q-7 -15 -19 -29q5 -8 9 -11q37 19 48 39q-3 9 -12 15zM512 812q-139 0 -257 -68.5
t-186.5 -186.5t-68.5 -257t68.5 -257t186.5 -186.5t257 -68.5t257 68.5t186.5 186.5t68.5 257t-68.5 257t-186.5 186.5t-257 68.5zM389 331q-8 -5 -10 -12l1 -115l6 -5l-1 -127l-34 1v127l7 5v112q-1 3 -2 5.5t-3 5t-5 3.5q-28 13 -43 34.5t-15 55.5q6 47 28 69t59 26
q17 -2 31.5 -13t24.5 -33t13 -54q-11 -68 -57 -85zM427 264q0 43 30 73t73 30q28 0 52 -14t38 -37.5t14 -51.5t-14 -52t-38 -37.5t-52 -13.5t-51.5 13.5t-37.5 37.5t-14 52zM671 93l-18 -19l-103 1l-4 3l-6 40l6 5l100 -5l11 9l60 401l17 -4zM556 229q-11 -2 -20 -2t-20 3
l-13 -21q4 -14 13 -28q15 1 30 0q3 5 5.5 9.5t6.5 9.5t8 9q-7 10 -10 20zM465 217l-12 -9q19 -29 53 -37l5 8q-2 4 -5 9l-6 10q-3 5 -5 8q-16 2 -30 11zM461 254q-8 15 -11 29q-9 0 -16 -6q1 -52 16 -63l12 5q-1 20 -1 35zM500 264q1 7 3 13.5t4.5 12t5.5 11.5q-2 10 -7 18
q-30 1 -39 -7q-7 -6 -13 -26l2 -4v-4l2 -4l2 -4l2 -4q1 -2 1.5 -3.5t2 -3.5t2.5 -3q6 3 14 5t18 3z" />
    <glyph glyph-name="uniE61D" unicode="&#xe61d;" horiz-adv-x="1025" 
d="M542 349l-33 -9l2 -9l33 9zM525 216l18 5l1 5q0 3 -1 8zM550 319l-33 -9l2 -8l33 9zM543 234zM557 290l-32 -9l-5 -11l15 -5l-4 14l26 7l4 -15l9 9q-1 1 -3 2t-5.5 3.5t-4.5 4.5zM644 181q4 1 4 3q-2 2 -3.5 0.5t-0.5 -3.5zM631 208q-2 1 -4 0t-2 -3q1 1 3 1.5t3 1.5z
M557 382l-78 -21l2 -8l78 21zM1021 303l-3 -3q-4 -2 -6 2q-1 2 1 5q1 1 1 2q1 2 3.5 1t0.5 2q-6 23 -9 34q0 2 -2.5 2t-2.5 3q1 1 1.5 2.5t0.5 2.5v4l-54 204q-1 0 -3 3l-1 2q-2 -1 -5 2q-46 -12 -105 -27.5t-118 -31.5t-105 -28q0 -6 -2 -10q-1 0 -4 0.5t-4 0.5q0 3 3 5
t4 3q-4 -1 -7 -1.5t-7 -1.5l-6 -2q-4 -1 -7 -2t-6.5 -1.5t-7 -1.5t-6.5 -2q-2 0 -2 -2t-2 -2q0 2 -1 2.5t-3 -0.5l-157 -42q-2 0 -2 -2.5t-1 -2.5l-1 2q-1 2 -3 1l-35 -9q0 -2 1 -6t2 -6.5t2 -4.5q2 2 3 2t3 -1l2 -2v2q0 2 2 2q0 -5 3 -3q1 1 1 0.5t1 -2.5q-1 -2 -4.5 -1.5
t-5.5 0.5q-1 -2 -3 -2.5t-5 -1t-6 -1.5q-4 -6 -6 -7q0 3 1 5q1 1 1 2q-3 -2 -4 5q1 0 3 -0.5t4 -0.5q-1 3 -6.5 3t-5.5 4h4l5 -1q2 -3 4 -1q2 3 5 3q-4 10 -5 12q-21 -5 -31 -8l-3 -5q-2 0 -0.5 -3t-0.5 -3q-1 1 -1.5 2.5t-0.5 3.5v3q-9 -2 -21 -5l-22 -6q-12 -3 -21 -6
q-2 1 -2 -1t-2 -2q-1 3 -4 1l-119 -31v-2l-2 -1q-1 0 -2 -1q-5 -1 -6 -3v1l-2 3q1 -3 -0.5 -4t-4.5 -1q-5 -2 -5 -3q-1 1 -1 3q1 1 0.5 1.5t-2.5 -0.5q-5 -1 -11 -3t-11.5 -3t-10 -2.5t-11 -3t-12.5 -3.5q-1 0 -2.5 -1.5t-3.5 -2.5q1 2 0.5 2.5t-3.5 -0.5q-5 -2 -16 -4
q-11 -3 -15 -4q-2 -5 -4 -5l-1 -6q65 -248 73 -276q3 -1 4 -5q1 0 7 -2q112 29 167 44q1 1 -0.5 2.5t-3 2.5t0.5 3q4 2 5 -4q1 -3 3 -3l17 5q0 1 -1 4t-0.5 4.5t2.5 1.5q3 1 4 -7q0 -2 2 -1q2 0 5.5 1.5t7.5 1.5q0 2 2.5 5.5t3.5 5.5q-1 0 -3 -1q-2 -2 -2 1q-1 2 2.5 3
t3.5 3l-1 1l1 1q2 2 -1.5 3.5t-3.5 3.5q4 1 4.5 5.5t3.5 5.5q0 -6 5.5 -9t6.5 -7q-10 -10 -8 -17q2 1 8.5 2t7.5 2l2 2l1 1l2 -2q1 0 4 1l1 1q19 5 62.5 16t62.5 17q3 0 2.5 2t2.5 2q0 -3 4 -2q3 1 13.5 3.5t17 4.5t9.5 4q-1 0 -2.5 2t-0.5 4q2 -1 4.5 -3.5t4.5 -1.5
q1 1 4.5 1t5.5 1q0 2 -1.5 3t-1.5 2q1 0 4 -2.5t7 -0.5q2 1 0 5v3q1 0 8 -1t8 1l1 -1q2 -2 4 -1q8 2 40.5 10.5t48.5 14.5q-2 -2 -3 0q-1 1 -2 1q-2 2 -2 5q-5 2 -9 7l-2 3q0 1 -1 4.5t-2 5.5q5 10 11 12l1 -2l2 -1q2 0 1.5 -2.5t2.5 -0.5l2 2q3 2 4 3t3.5 2t4 0.5t3.5 -2.5
q0 -3 -4 -6.5t-4 -7.5q2 1 3 3t3 2q2 -1 3 1q2 3 4 3q0 -2 1 -3.5t2 -2.5t1 -3q-3 -1 -5.5 1t-5.5 1v-3q0 -1 2 -2.5t3 -2.5q-4 -3 -5 -7q1 0 3 1q4 0 5 -1q-2 -3 -9 -5h-1q0 -1 -1.5 -2t-1.5 -3l16 4q-1 2 2 11q2 -1 6 0.5t5 0.5q0 -1 -1 -8l342 90q4 5 6 6q0 4 -0.5 9.5
t-2.5 11.5zM57 327q1 -3 -5 -6q-1 2 0.5 3.5t4.5 2.5zM58 249l-1 5l1 1q2 -1 1 -3zM57 265q-7 0 -1 6q2 3 4 2q0 -2 -1 -4.5t-2 -3.5zM63 262q-1 0 -1 4q1 -2 1 -4zM64 110q0 1 0.5 1.5t0.5 1.5q1 0 2 1q-1 -3 -3 -4zM70 265q-1 1 -1 3h2q0 -1 1 -2q-2 0 -2 -1zM241 375
q-1 2 -3 2q0 2 3 3.5t2 3.5q2 0 2.5 -1.5t0.5 -3.5l-2 -4q0 -2 1 -3q-2 1 -4.5 -1t-3.5 -3q-2 2 -1 4l2 2q1 0 3 1zM234 369q2 -4 -3 -8q-2 -2 -3 -2q1 -3 5 -5t5 -5q-3 0 -3.5 -4t-2.5 -5q0 1 -1 3.5t-1 3.5t1 2q-6 5 -7 11q3 1 5 4.5t5 4.5zM220 361zM216 363q0 -1 0.5 -2
t0.5 -3q-3 -1 -4.5 -0.5t-1.5 3.5q1 1 2.5 1t2.5 1zM185 357q2 -4 -2 -4l-3 3q2 0 3 1t2 0zM90 300q1 -4 -2 -6l-6 -2l1 -5q-2 1 -2.5 1t-2.5 -1q-2 6 2.5 10t9.5 3zM88 271q-1 -5 -3 -6q-1 0 -1 7h2h1zM83 262q0 -3 -3 -4q-1 2 2 3zM76 98v2q1 0 2 1l1 -3h-1h-2zM76 204h2
l-1 -1zM74 248q0 3 -0.5 5t-0.5 4h2q7 -1 10 -7q5 0 2 9h3h1q1 -1 0.5 -4.5t0.5 -3.5h1l7 -25q-3 13 -13 14q0 2 -1 5q-1 1 -7 0q-1 0 -1 2q0 3 -4 1zM85 184q4 1 4 -4q0 -1 -2 -0.5t-3 0.5q1 2 1 4zM84 205q-1 3 -1 4.5t1 3.5q2 0 2.5 -2t0 -4t-2.5 -2zM83 220zM82 174l4 1
q6 -5 5 -10q-5 -3 -7.5 1t-1.5 8zM90 155l-1 2q2 1 3 1v-3h-1h-1zM99 128q2 3 -1 5t-3 4q6 0 7 1q0 2 -2 3l-1 3q1 0 2.5 -1t3.5 -1q-1 -1 -1 -3t-1 -3q1 -1 3 -1t2 -2q-4 0 -5 -2t-4 -3zM110 59q-1 0 -2 -1q0 1 -2 1v2q1 1 1 2q1 0 2 1q0 -2 2 -1v-3q-1 0 -1 -1zM112 138z
M117 81zM130 103zM133 61q5 2 6 -2q-5 0 -6 2zM140 68zM165 78q2 1 3 1q2 -1 3 -8q-3 1 -6 7zM204 64q-2 5 -2 6q3 -1 6 0q1 -5 -4 -6zM213 100q-1 2 2 3h1q0 -3 -3 -3zM223 77l-1 2q2 0 2 1l1 -3h-1h-1zM222 93l2 1l1 -2l-2 -1zM249 99zM265 106q5 1 6 -4q-2 -1 -3.5 0
t-2.5 4zM273 95q3 5 6 0q1 -2 0 -4q-6 0 -6 4zM297 122l-1 2q2 1 3 1v-3h-1h-1zM301 129q1 5 2 5q2 -4 -2 -5zM321 107q-3 0 -2 3q1 2 0 3q2 0 2 -4v-2zM323 102q0 2 1 3.5t0 3.5q0 1 2 1q3 1 2 3q2 0 4 -5t4 -5q-2 -2 -4 -1l-4 2q-2 1 -5 -2zM331 120q7 5 8 -2h-2
q-5 -1 -6 2zM318 146q-6 -2 -15.5 -4.5t-20 -5t-21.5 -5.5t-21 -6t-17.5 -5t-12.5 -3l-5 -1q-2 1 -11 -0.5t-22.5 8t-18.5 28.5l-1 5l-25 93l26 7q-1 3 1 5.5t5 2.5q0 -4 -3 -6l1 -1l4 2l6 -21q0 1 1 1v-1l103 28l-12 43l-145 -39l-9 33l103 27q-3 0 -5.5 3t-2.5 6t2 4
q1 -1 1 -2v-2q7 2 9 1q0 -1 -6 -5q0 -1 1 -2q2 -1 1 -3l18 5l61 16l1 -5l7 -27l12 -44l6 -22l3 -10l-140 -38l10 -39q6 -20 24 -15l89 24q1 0 3.5 1t6.5 5.5t3 11.5l-4 38h4q-3 4 3 5q0 -1 -0.5 -2.5t-1.5 -2.5l1 -1l34 -3l1 -46q0 -3 -1 -8t-9 -15t-21 -13zM301 224
q-2 -4 -3 -5q-1 3 3 5zM298 230q2 1 2.5 -2t-1.5 -3q-1 0 -1 2v3zM292 228q-2 0 -3 2h3v-2zM285 205l-2 -1q0 1 0.5 1.5t1.5 -0.5zM281 204q-1 -1 -2 0t-1 2q2 0 3 -0.5t0 -1.5zM261 224h-1h-1v1h1zM245 178q0 -1 -2 -3q-1 1 -0.5 2t-0.5 1h3zM219 174q0 2 4 2q5 0 3 3h3
q1 1 1 4t3 3q-2 -1 -1.5 -5t0.5 -7q5 2 5 1t-3 -1.5t-2 -2.5q-12 2 -13 3zM231 168q1 -4 0 -5q-2 -1 -3 2v2q2 0 3 1zM217 161q-2 0 -1 2v1v1q-1 -1 -2 -2.5t-2 -1.5v3q1 2 0 3q1 0 3 -0.5t3 -0.5q1 1 0.5 2.5t0.5 2.5q0 1 1 0l2 -1q1 -2 0 -3l2 -1l2 -2q-2 -1 -4 -0.5
t-3.5 0.5t-1.5 -3zM224 161q-1 -1 -2 -1v1q1 1 2 1v-1zM199 171q1 0 2.5 -0.5t2.5 0.5q-1 1 -4 1q-3 2 -3 3q0 -1 2.5 -0.5t2.5 -0.5q1 -1 2 0t3 1l-1 2l-2 5l2 1q0 -1 1 -5t3 -5q1 2 4 -1v2q0 1 1 1q1 -4 3 -3q0 -1 -2 -0.5t-4 -0.5q0 -1 -1 -1.5t-3 -0.5t-4 -1v-1
q-1 -3 -3 -3q0 2 1 3v1q-2 -1 -3 3zM217 177q-1 1 0 2t0 1q2 1 4 -2q-1 -1 -3 -1q-1 1 -1 0zM234 181q2 0 1 -3l-1 -2q-1 1 0 3v2zM307 207h2q1 0 1 -1l-1 -1h-1v1q-1 0 -1 1zM350 115q-1 2 2 3h1q-1 -2 -3 -3zM946 481q1 -3 -5 -4q0 1 1.5 2t3.5 2zM934 482zM931 493
q-3 -1 -4 1.5t0 4.5q2 0 4 -6zM926 481zM929 501q-3 -1 -4 3v1q3 1 4 -4zM903 512zM844 506q2 0 2 -2.5t-1 -3.5q-2 0 -1 3v1v2zM695 471q1 0 2 -2t3 -3h3q3 -1 4 -3l2 -3l-4 -1q0 2 -2 2q-7 4 -9 4q0 1 -1.5 2t-1.5 3q1 1 4 1zM633 288q1 -1 0 -3l-1 -2q-1 1 0 2zM597 467
h2h2q1 0 1 -1l1 -2q1 -1 4 -1q1 0 1 -4q2 0 4 1.5t3 1.5v-3l1 -5q0 -2 2 -2t2 -2t-3.5 -1t-5.5 0q3 4 -0.5 6t-8.5 2v1q-2 8 -6 5q0 1 0.5 2t0.5 2zM620 371q0 -1 -2 -3q-1 1 0 2v1h2zM594 367q0 2 4.5 2.5t3.5 3.5h2q1 0 1 3t3 4q-1 -1 -1 -4v-4v-4q5 1 5 0l-3 -1
q-3 -1 -2 -3h-5q-3 0 -5 0.5t-3 2.5zM606 361q1 -3 0 -5q-2 1 -3 4zM587 354q0 2 0.5 3.5t-0.5 3.5q1 0 4 -1l2 -1q1 1 0.5 2.5t0.5 2.5q0 1 2 0l1 -1q1 -2 0 -3q0 -1 2 -1t2 -2h-4q-5 1 -5 -2q-2 0 -1 1v2q-1 0 -2 -2t-2 -2zM592 371v1q1 1 0 2q2 0 4 -3q-1 -1 -2 -0.5
t-2 0.5zM609 374q2 0 1 -3l-1 -1q-1 0 0 2t0 2zM600 456q-2 -1 -3 -1q-1 1 -1 3l1 2q1 0 2 -1t1 -3zM599 451q2 -1 2.5 -2.5t0.5 -3t-0.5 -4t-0.5 -3.5q-2 -1 -3 3l1 2q-1 1 -5 1.5t-4 3.5q2 2 4 1t3.5 -1t1.5 3zM583 442q-2 -4 -6.5 -2t-6.5 2q0 2 3.5 3.5t6.5 0.5t3 -4z
M543 431l2 1q0 -3 -2 -3v1v1zM529 436q-1 -1 -7 0q-1 0 -1.5 -2t-2.5 -2q-5 7 5 8q6 1 6 -4zM524 430q0 -4 -5 -4q-2 1 -3 3q6 2 8 1zM513 440q2 -2 2 -3.5t-1 -4.5t-1 -4q-3 -1 -6 0t-4 1q-1 1 0 3q0 2 -1 4q8 2 11 4zM423 406q-1 -3 -4 -4q-1 0 -0.5 2t0.5 3q2 -1 4 -1z
M404 404q-2 1 0 4q1 2 1 4q2 -2 -1 -8zM392 409q3 1 4 0q1 1 2 6.5t6 5.5q-4 -2 -3.5 -9.5t-0.5 -10.5q1 0 3 1q3 1 4 1t3 -1q-1 -2 -5 -3q-4 -3 -4 -4h-5h-5q-2 0 -4.5 0.5t-4 1.5t-3.5 3q1 3 8 3.5t5 5.5zM388 413zM375 406q0 1 1 2.5t0 2.5q4 1 7 -4q-2 -1 -5 -1h-3z
M367 389q2 0 6 -1l5 -1q1 1 0 4t0 4q2 1 4 0t3 -1l-2 -5q1 -2 4 -2.5t3 -3.5q-2 -1 -7 0q-2 1 -3.5 1t-3 -1t-1.5 -4q-2 0 -2 3q1 2 0 3q-2 -1 -3 -3l-2 -4q-2 3 -1 6t0 5zM423 280l-20 -8l-28 69l22 9zM409 321h1h1l1 -2q-1 -1 -2 -1zM416 304v1h1v-2h-1v1zM406 231
q-1 -1 -2.5 -0.5t-2.5 -0.5q-4 8 6 9q0 -4 -3 -6q0 -1 1 -1t1 -1zM408 222q1 -4 -1 -5q0 1 -1 4q0 1 1 1h1zM384 379q2 1 3 1l1 -2q-1 -1 -4 -1v2zM361 144h-1q-6 0 -6 4l8 2h1q0 -1 -1.5 -2.5t-0.5 -3.5zM366 146q-1 2 3 4q0 -3 -3 -4zM371 148h1v1q6 1 8 -5q-7 -1 -9 4z
M387 131q0 2 -3 2q0 3 6 4q0 -5 -3 -6zM392 220v-3l-1 -2q-2 -1 -2 2q1 2 3 3zM393 209q1 0 1 -1l-1 -2l-1 2zM397 148q-7 0 -3 8q1 3 4 4q0 -3 -1 -5t-1 -3t1 -4zM398 218h1v-1l-1 -1v0v2zM400 132zM406 205q-1 0 -1.5 1.5t-2.5 0.5q0 1 -0.5 2.5t-0.5 2.5h1q4 1 7 -3
q3 0 0 5q3 1 3 -1.5t1 -2.5t1 2t2 2l3 -9l-1 1l2 -10q-3 8 -9 7q0 1 -1 2v1q-1 1 -3 0zM413 182q-2 2 -1 5q1 0 1.5 -2t-0.5 -3zM415 150q-3 1 -6 5q1 3 7 1q1 -2 0 -4zM454 156q-1 2 2 3q0 -2 -2 -3zM458 168q0 2 3.5 2t3.5 3q1 -1 1 -4.5t4 -3.5q-3 -4 -9 1q-2 2 -3 2z
M490 168q0 2 0.5 4t0.5 3.5t-2 2.5l4 2q0 1 -5 4l6 2q1 -2 7 -10q-3 1 -3 3q-2 -1 -3.5 -5.5t-4.5 -5.5zM500 163q0 2 1 1.5t2 -0.5q0 -1 -1 -1h-2zM505 183zM504 187v1l2 1q-1 -2 -2 -2zM511 155q4 2 6 1q1 -3 -3 -3q-3 -1 -3 2zM511 186h2q0 -1 1 -2h-3v2zM515 182
q0 2 1 4.5t0 4.5q2 1 4 -2.5t5 -1.5q1 -4 -2.5 -5t-7.5 0zM520 193h4v-2q0 -1 -1 -2q-2 1 -3 4zM522 161q-1 2 3 3zM526 168q-1 2 3 3q-1 -2 -3 -3zM524 177q-1 3 -1 4q1 2 6 2h4q0 -2 -1 -3t-4 -2t-4 -1zM534 163q3 0 4 1q0 -1 0.5 -2.5t0.5 -2.5q-4 -2 -5 4zM564 162
q-3 -1 -3 2.5t3 3.5q1 -1 0.5 -3t-0.5 -3zM565 165q3 0 5.5 2.5t5.5 2.5q4 -5 6 -4q-3 -5 -9 -6t-8 5zM591 190q-1 -2 -3.5 -1.5t-4.5 1t-3 -1.5q0 -2 4 -1t4 -3q-9 -4 -14 -11q-2 0 -2 3q-1 2 -1 3q-1 -1 -2 -4q-1 -4 -4 -4q-1 -1 -2 -1q1 3 2 7.5t3 7.5t5 5q0 1 -1 3.5
t-1 3.5t1 3h-2q-1 0 -1 1q-4 -1 -6 -12l-9 1v4q0 1 1 1q3 2 4 -2v-2q4 2 -2 11q1 0 2 1l17 5l2 -2q1 0 2 1t2 1q1 -3 -1 -8t-2 -8q5 1 8 8q2 -1 8 -7q-2 -1 -3.5 1t-2.5 2q-1 -1 -2.5 -2t-3.5 -1q2 -2 8 -3zM610 172q-2 0 -1 3v3q2 0 2 -2.5t-1 -3.5zM630 277l-2 1l-1 -4h3
l-1 -5q-1 0 -1.5 0.5t-1.5 2.5l-4 -15q-29 9 -31 12l-7 -9l46 -10l-8 -26l-52 14v-1q8 -29 -10 -34q-5 -1 -10 -3l3 1q-3 -3 -5 -2v1l-5 -1l-14 -4l-8 18l-22 -22l-20 20l41 32l-12 5l-22 -29l-9 5l-6 -13l-15 16q-4 -41 -13 -57l-27 17q2 1 4 6t5.5 28t-2.5 64l-25 96
q-2 1 -2 3l-2 4h2l-1 3l24 6l14 -48l6 17l11 -8l-3 12l-2 8l-5 18v1l74 20q1 3 1 4q2 0 3 -3l55 15l1 -2l4 -17l2 -9l5 -15l2 -9l2 -9l2 -6h1l1 -1h-1h-1l1 -3l-15 -4h-1v-1v1l-6 -2l2 -9l25 7v1h2v0h1l5 -21l-27 -7l2 -9l34 9l6 -20l-35 -10q19 -9 42 -9q4 5 5 5l-2 -6h1
l-1 -3v-3q1 0 2 1q2 1 4 0q-1 -1 -4 -2t-2 -3zM634 440l-1 1q2 2 7 1zM641 282q-1 0 -1 2l1 1q1 -1 2 0q0 -1 -1 -1zM661 220v2h2l1 -2h-3zM668 226q-2 2 -1 6l5 1q-2 -5 -4 -7zM662 377l13 28l45 -20l-15 -30zM708 231q1 4 5.5 3t4.5 -4q-2 -2 -5 -0.5t-5 1.5zM726 248l6 1
q2 -2 2 -3q-5 -2 -8 2zM701 252v91l32 -2l2 -91zM751 214zM753 226q-2 0 -4 -1t-2.5 -1t-2.5 2q3 3 7.5 2.5t5.5 -4.5q-2 0 -4 2zM738 234q2 2 4 1.5t3.5 -2t2.5 -3.5q-5 0 -10 4zM783 260v2v1h3q0 -1 -3 -3zM803 300h-1l-1 2h2q1 0 0.5 -0.5t-0.5 -1.5zM818 245q4 -1 6 -4
q-5 -3 -6 4zM831 237q-1 5 4 8q-2 -7 -4 -8zM887 293l-38 -10l-11 19l-28 9q5 8 7 13.5t2 7.5v2l-6 -7l-5 2v-1q-1 -2 0 -3t0 -2q-1 0 -2 1l-1 1q0 1 1 1q-1 2 0 4l-3 1q1 -4 -1.5 -14.5t-5.5 -18.5l-3 -8l-13 7l9 -32l-20 -6q-2 -3 -3 -3q0 -2 2 -2.5t2 -2.5q-4 -1 -2 -6
q-2 0 -3.5 2.5t-2.5 2.5q-5 -1 -4.5 -8t-5.5 -7v6q0 6 -1 7q-5 -1 -1 -7q-5 -2 -7 5q0 1 1.5 2t2.5 2.5t1 2.5l3 1q3 -1 3 -4q3 0 4.5 1t2.5 2t2 2.5t2 2.5l-5 -1l-26 97l-6 20v2l39 11l-4 15l-46 -12l-7 26l34 9l-4 14l-34 -9l-2 7l-11 -22l-43 22l13 28l38 -17l-2 8l35 9
l-5 17l33 9l4 -17l32 8l-5 17l31 9l5 -18l36 10l7 -26l-36 -10l3 -13l37 9l7 -26l-34 -9v-2v-2q-2 -1 -2.5 0t-0.5 3l-4 -1l1 -1q-1 0 -3.5 -0.5t-3.5 -0.5l4 -15l40 11v-2l6 -21l14 -53l3 -9q0 -2 2 -8q1 -5 0 -10t-4 -9t-6 -6.5t-5 -4.5zM808 317q0 1 2 1h2q0 -1 -2 -1h-2
zM842 419l-2 -1l-1 2h2zM901 265q-1 4 -1 5q3 2 4 -1q1 -4 -3 -4zM906 257zM906 443zM915 267v3h2l1 -2q-2 -1 -3 -1zM918 258v3l1 2q4 -2 5 -5h-2h-4zM933 467q-3 0 -5.5 1.5t-4.5 0.5q-5 4 -10 0q0 -2 2 -3.5t5.5 -1.5t5.5 3q1 -4 -4 -10q-3 1 -7 5q-2 0 -3.5 2t-0.5 5
q4 0 0 6q-1 0 -3.5 -0.5t-4.5 -0.5t-4 1q0 -3 1 -7.5t2.5 -10t2.5 -8.5l-14 52q4 -3 2 -7q1 -1 2 0t1 0l2 -1q3 -13 6 -18q4 3 2 9q2 -1 5.5 -0.5t3.5 4.5q2 0 2.5 -1.5t-0.5 -3.5t0 -3q0 -2 3 -1.5t3 -1.5q-3 -1 -4 -1q0 -3 3 -4h4q3 0 3 2t1 2q1 -2 2.5 0t2.5 1
q-1 -1 0.5 -3t1.5 -3q-5 -1 -4 -4zM915 466q0 1 1 1.5t1 1.5q2 0 2 -1zM942 285q2 1 4 -1t1 -3q-3 -1 -4.5 1t-0.5 3zM940 378q1 0 3 1.5t4 1.5q3 -5 -3 -6q-3 1 -4 3zM977 316q-1 0 -1 3t-1 6q4 1 4.5 -3.5t-2.5 -5.5zM949 281q0 2 1.5 2.5t2.5 0.5q-1 -3 -4 -3zM952 404z
M955 488h2q1 -2 -3 -3v1q1 1 1 2zM956 366v1v1q3 0 3 -2q-1 -1 -2 0h-1zM960 324q1 1 2.5 1t2.5 1q0 -1 0.5 -2.5t0.5 -2.5q-5 0 -6 3zM977 406q2 -4 -0.5 -6.5t-6.5 -1.5q-1 2 0 3.5t4 2.5t3 2zM975 306q-4 4 2 8l3 1q0 -3 -0.5 -4t-1.5 -2.5t-3 -2.5zM984 400
q2 1 2.5 -0.5t1.5 -5.5q-3 -2 -3 3q-1 2 -1 3zM994 282q-2 0 -3 -1v2v2q2 1 3 1q1 -1 0.5 -2t-0.5 -2zM997 323q1 2 3 3q-3 3 -1.5 6t5.5 4q1 -2 0.5 -3.5t-1 -2.5t-1.5 -2q-1 -2 0 -3.5t0 -3.5q-2 -1 -3 0.5t-2 1.5zM1003 310q0 2 3 1q2 0 2 1q0 -3 -5 -2zM1013 293
q0 1 -0.5 2.5t-0.5 2.5q5 0 6 -3q-1 -1 -5 -2zM536 261l-6 -12l13 -15q-1 5 -2 7zM870 337l-7 -10l-13 9q0 -2 -1 -6l-2 -8q-1 -4 -2.5 -7.5t-2.5 -5.5l-1 -3q16 5 26 7q8 2 6 14zM808 414l-17 -4l4 -16l17 5zM763 362l11 -41q3 19 1 44zM770 356q1 1 2 1.5t2 0.5
q2 -2 -0.5 -3t-3.5 1zM801 372l4 -14l17 -9q0 9 -0.5 15.5t-2.5 11.5zM805 456l-32 -8l4 -14l31 8zM459 285l6 2q-1 0 -2 1h-1l1 2q-4 5 3 6q0 -3 -1 -5q-1 -1 -0.5 -2t0.5 -2l27 7l-3 9l-26 -7l-5 21l26 7l-3 8l-22 -6l-2 8l-2 -2q1 -1 1 -2l-1 1l-12 -20l5 -19l2 -10
q1 1 2 1q0 -3 -2 -4l2 -12l24 -19q14 16 20 25l-32 -8zM450 284q-1 0 -0.5 2t-0.5 3q2 1 3 -1q1 -3 -2 -4zM460 264h-1v2h2l-1 -1v-1zM864 358l-7 29l-11 -3l5 -18zM553 398l-2 9l-78 -21l2 -9zM568 246l6 11l-12 11z" />
    <glyph glyph-name="uniE61E" unicode="&#xe61e;" horiz-adv-x="1025" 
d="M991 369l-388 404q-37 39 -91 39t-91 -39l-388 -404q-19 -19 -26.5 -39t-7 -32t5.5 -22q17 -40 66 -40h57v-311q0 -55 35 -96t88 -41h65h100v73v256v14v13q0 3 0.5 9.5t2.5 8.5t5.5 5t9 4t13.5 1h65h65q8 0 13.5 -1t9 -4t5 -5t2.5 -8.5t1 -9.5v-13v-14v-256v-73h100h65
q35 0 63.5 19.5t44 51t15.5 66.5v311h57q21 0 36.5 8.5t21 16t8.5 15.5q3 7 4 15.5t-0.5 20.5t-9.5 27t-22 30zM953 300h-49h-33h-39v-375q0 -28 -16.5 -50.5t-42.5 -22.5h-101v265q0 37 -8.5 62.5t-30 41t-56.5 15.5h-65h-65q-52 0 -73.5 -31t-21.5 -88v-265h-101
q-26 0 -42.5 22.5t-16.5 50.5v375h-39h-33h-49q-1 0 -2 2l-1 2q0 1 1 2.5t2 3.5l2 4q1 2 2 3.5t2.5 3.5t2.5 4l389 404q18 19 44 19q24 0 42 -19l389 -404q2 -3 12 -21l-1 -2q-1 -2 -2 -2z" />
    <glyph glyph-name="uniE61F" unicode="&#xe61f;" horiz-adv-x="1025" 
d="M292 388q4 -20 16 -33q12 -12 30 -15q4 -1 8.5 -1t9.5 0.5t10 2t11 3.5l-79 80q-9 -18 -6 -37zM531 316q-20 2 -47 -13l89 -90q14 21 12 44.5t-19 40.5q-15 16 -35 18zM910 324l-471 429q-5 5 -23 8.5t-43 6t-58.5 3.5t-66 1.5t-69.5 0t-64 -0.5l-54 -2q-27 0 -36 -0.5
t-14 -0.5q-25 -464 1 -468l466 -447q15 -15 35 -20.5t40 0t35 20.5l294 331q18 21 29.5 38t19.5 36.5t2.5 36t-23.5 28.5zM93 558q-24 24 -24 58t23.5 58t57 24t57.5 -24q16 -16 21.5 -37t0 -42.5t-21.5 -36.5q-9 -10 -20.5 -16t-24 -7.5t-25 0t-24 7.5t-20.5 16zM633 86
l-42 42q-8 -7 -17.5 -13t-18.5 -10t-18.5 -7t-19 -4t-19.5 -1q-24 0 -49.5 9.5t-51.5 28.5l53 67q22 -15 45 -18t42 3l-96 97q-57 -33 -103.5 -27.5t-83.5 42.5q-37 38 -39 87q-1 25 7.5 48.5t25.5 45.5l-22 22l33 34l22 -23q41 32 82 33q21 1 41.5 -6t40.5 -21l-50 -66
q-16 11 -32 13t-31 -4l88 -90q70 40 113 36q22 -2 42 -12t38 -29q41 -42 45 -95q1 -11 0 -22t-4 -21.5t-7 -21t-10 -20.5t-14 -21l43 -43zM980 368l-400 383q-6 4 -13.5 8t-15.5 6t-16.5 3t-16 1.5t-13.5 1t-9 -0.5h-3l440 -418q16 -10 25.5 -22.5t12.5 -25t3 -25t-3 -23
t-6 -19t-5 -13.5l-3 -4l-273 -307q-64 -74 -63 -77q15 -8 25 -8.5t18.5 5t21.5 18.5l296 332q30 43 38 75.5t-2 58t-38 51.5z" />
    <glyph glyph-name="uniE620" unicode="&#xe620;" 
d="M316 -212l497 512l-498 512l-104 -107l393 -405l-393 -405z" />
    <glyph glyph-name="uniE621" unicode="&#xe621;" 
d="M512 812q-139 0 -257 -68.5t-186.5 -186.5t-68.5 -257t68.5 -257t186.5 -186.5t257 -68.5t257 68.5t186.5 186.5t68.5 257t-68.5 257t-186.5 186.5t-257 68.5zM438 85h-1l-24 -24l-242 241l40 40l201 -200l400 397l41 -41z" />
  </font>
</defs>
</svg>
